<svg width="48" height="52" viewBox="0 0 48 52" fill="none" xmlns="http://www.w3.org/2000/svg">
<path fill-rule="evenodd" clip-rule="evenodd" d="M5.17008 23.1564C5.17008 13.591 12.9244 5.83669 22.4898 5.83669C26.4011 5.83669 30.0095 7.13318 32.9088 9.31983L8.65322 33.5754C6.46656 30.6761 5.17008 27.0677 5.17008 23.1564ZM4.96985 37.2588L0.780987 41.4477C-0.26041 42.4891 -0.260411 44.1775 0.780987 45.2189C1.82239 46.2603 3.51083 46.2603 4.55222 45.2189L8.78308 40.988C12.5776 43.9092 17.3309 45.6462 22.4898 45.6462C27.0385 45.6462 31.2718 44.2958 34.8107 41.974C34.8331 41.9982 34.8561 42.022 34.8796 42.0455L43.4102 50.5762C44.4197 51.5857 46.0565 51.5857 47.066 50.5762C48.0755 49.5666 48.0755 47.9299 47.066 46.9204L38.7935 38.6478C42.627 34.6145 44.9796 29.1602 44.9796 23.1564C44.9796 17.9975 43.2426 13.2442 40.3214 9.44969L44.5522 5.21891C45.5936 4.17751 45.5936 2.48907 44.5522 1.44767C43.5108 0.406277 41.8224 0.406277 40.781 1.44767L36.5922 5.63646C32.7349 2.52764 27.8297 0.666626 22.4898 0.666626C10.069 0.666626 1.36644e-05 10.7357 1.36644e-05 23.1564C1.36644e-05 28.4963 1.86103 33.4015 4.96985 37.2588ZM36.6253 13.1459C38.6307 15.9725 39.8095 19.4268 39.8095 23.1564C39.8095 32.7218 32.0552 40.4762 22.4898 40.4762C18.7602 40.4762 15.3059 39.2973 12.4793 37.2919L36.6253 13.1459Z" fill="#5B5B5B"/>
</svg>
