<svg width="8" height="6" viewBox="0 0 8 6" fill="none" xmlns="http://www.w3.org/2000/svg">
<path fill-rule="evenodd" clip-rule="evenodd" d="M0.264873 2.01657C-0.0285212 1.79544 -0.087103 1.37833 0.134026 1.08494C0.355157 0.791543 0.772261 0.73296 1.06566 0.954091C1.67665 1.4146 2.39749 2.02375 3.16532 2.88191C3.49209 3.24713 3.77815 3.60099 4.00336 3.8915C4.22753 3.60263 4.51115 3.25217 4.83468 2.89058C5.60251 2.03241 6.32334 1.42326 6.93434 0.962756C7.22774 0.741627 7.64484 0.800209 7.86597 1.0936C8.0871 1.387 8.02852 1.8041 7.73513 2.02523C7.17695 2.44593 6.52412 2.99768 5.82619 3.77772C5.4744 4.17089 5.17049 4.55371 4.94477 4.84977C4.8321 4.99756 4.73941 5.12306 4.66937 5.21813L4.6481 5.24708C4.5976 5.31584 4.53563 5.40022 4.4972 5.44347C4.25311 5.71806 3.83264 5.74279 3.55805 5.49871C3.5049 5.45147 3.46112 5.39762 3.42683 5.33951C3.40174 5.30628 3.37557 5.27065 3.35192 5.23844L3.3519 5.23841L3.33062 5.20947C3.26059 5.1144 3.1679 4.9889 3.05522 4.8411C2.82951 4.54505 2.5256 4.16223 2.17381 3.76905C1.47588 2.98902 0.823049 2.43726 0.264873 2.01657Z" fill="#E0E0E0"/>
</svg>
