<svg width="91" height="92" viewBox="0 0 91 92" fill="none" xmlns="http://www.w3.org/2000/svg">
<g clip-path="url(#clip0_1887_21163)">
<path d="M0.333008 51.2082L12.583 39.1527L33.4163 35.4583L31.3608 46.3749L3.19412 55.0416L1.36079 54.2638L0.333008 51.236L0.333008 51.2082Z" fill="#CA2C31"/>
<path d="M14.6938 42.2361L1.41602 54.3194L11.1938 59.0694L26.0271 51.4861V47.9028L29.0549 39.7361L14.6938 42.2361ZM46.1382 63.4861L39.7216 66.2639L33.666 79.0972C33.666 79.0972 38.9993 90.9028 39.2493 90.9028C39.4993 90.9028 42.5271 91.1528 42.5271 91.1528L53.3049 79.0972L56.0271 58.5139L46.1382 63.4861Z" fill="#CA2C31"/>
<path d="M39.8331 73.0137C39.8331 73.0137 43.4164 72.2915 45.9442 71.0693C48.4998 69.8471 51.6387 68.0415 51.6387 68.0415L50.472 78.0971L39.1942 90.9304C39.1942 90.9304 38.7498 90.3748 36.8887 86.3193C35.3887 83.0693 34.8887 81.9026 34.8887 81.9026L39.8331 73.0137Z" fill="#CA2C31"/>
<path d="M21.1668 57.9028C21.1668 57.9028 16.8612 57.5417 12.1668 63.4861C7.86123 68.9306 5.86123 77.7639 5.08345 80.0417C4.30568 82.3194 2.44457 82.7917 3.05568 83.8194C3.66679 84.8472 6.36123 84.7917 9.69456 84.375C13.0001 83.9583 15.8612 82.9306 15.8612 82.9306C15.8612 82.9306 15.7223 83.2917 15.2501 84.0694C15.0835 84.3472 14.4723 84.7361 14.5279 85.1528C14.639 86.125 23.0279 86.1528 29.7501 79.2639C37.0001 71.8194 33.4723 65.7083 33.4723 65.7083L21.1946 57.875L21.1668 57.9028Z" fill="#F7D74D"/>
<path d="M22.4721 61.3471C22.4721 61.3471 17.8332 61.5971 13.9999 67.5416C10.1665 73.486 8.38877 80.4027 8.74988 80.8471C9.11099 81.3193 16.2499 78.736 17.9721 79.236C19.1388 79.5971 18.5277 80.7916 18.861 81.0971C19.111 81.3471 22.2221 81.7916 27.2499 76.3749C32.2777 70.9304 31.0832 63.2916 31.0832 63.2916L22.4721 61.3193V61.3471Z" fill="#FBF0B4"/>
<path d="M24.7217 53.2361C24.7217 53.2361 22.3884 55.3194 21.5551 56.5139C20.7217 57.7083 20.7217 57.8194 20.7773 58.1805C20.8329 58.5416 21.694 62.4861 25.2773 65.9583C29.694 70.2083 33.6106 70.7639 34.194 70.7639C34.7773 70.7639 38.5551 66.5139 38.5551 66.5139L24.7495 53.2639L24.7217 53.2361Z" fill="#858585"/>
<path d="M35.0273 65.8193C35.0273 65.8193 38.8051 68.2915 45.1385 66.1804C53.7773 63.2637 60.1385 56.7637 67.9996 48.5693C75.5829 40.6526 81.944 30.8193 81.944 30.8193L77.4996 15.9026L35.0551 65.847L35.0273 65.8193Z" fill="#D9D9D9"/>
<path d="M48.4443 57.6526L49.4721 54.4304L52.0832 54.7915C52.0832 54.7915 54.0554 55.736 55.5277 56.4026C56.9999 57.0971 58.861 57.5971 58.861 57.5971L55.1666 60.736C55.1666 60.736 53.1388 59.986 51.6666 59.3193C49.9999 58.5971 48.4443 57.6526 48.4443 57.6526Z" fill="#3F545F"/>
<path d="M60.6659 9.56928C60.6659 9.56928 53.4714 13.7359 43.1381 23.5137C33.8326 32.3193 26.9437 40.2915 25.2492 47.0693C23.8603 52.7359 24.6103 56.1804 27.777 59.9026C31.1381 63.8471 35.0548 65.7915 35.0548 65.7915C35.0548 65.7915 37.9992 65.8471 50.3326 56.3748C65.6937 44.5415 77.9992 24.7359 77.9992 24.7359L60.6937 9.5415L60.6659 9.56928Z" fill="#D9D9D9"/>
<path d="M75.5279 28.8192C75.5279 28.8192 69.2501 26.1526 64.7779 19.9026C60.3334 13.7081 60.6946 9.51367 60.6946 9.51367C60.6946 9.51367 64.4168 6.59701 72.7501 3.26367C78.3612 1.01367 86.0279 -0.125218 88.5279 1.73589C91.0557 3.59701 86.8057 12.9581 86.8057 12.9581L79.0834 27.9026L75.5001 28.7915L75.5279 28.8192Z" fill="#CA2C31"/>
<path d="M48.5552 57.7083C48.5552 57.7083 43.1386 54.9583 39.6941 51.0138C33.1663 43.5972 31.833 35.4305 31.833 35.4305L35.1108 31.5972C35.1108 31.5972 35.9163 40.2638 42.9163 47.7361C47.4719 52.6249 52.2219 54.8472 52.2219 54.8472C52.2219 54.8472 51.2774 55.6527 50.2497 56.4305C49.6108 56.9305 48.5552 57.7083 48.5552 57.7083Z" fill="#D9D9D9"/>
<path d="M81.9163 30.7916C81.9163 30.7916 85.1663 26.875 88.2497 18.0416C92.5552 5.73608 88.8052 1.98608 88.8052 1.98608C88.8052 1.98608 87.5274 7.8472 83.1386 15.9861C79.6108 22.5139 75.333 28.7083 75.333 28.7083C75.333 28.7083 77.6941 29.7639 78.9719 30.125C80.583 30.5972 81.9163 30.7639 81.9163 30.7639V30.7916Z" fill="#CA2C31"/>
<path d="M27.333 49.6527C28.3052 50.5693 29.7774 49.5971 30.7496 47.3193C31.7218 45.0416 31.7218 43.7638 30.9718 43.236C30.0552 42.5693 28.4718 44.0416 27.8052 45.3471C27.0552 46.7916 26.6107 48.9305 27.3607 49.6527H27.333ZM61.1385 12.5693C61.1385 12.5693 55.4441 16.6527 49.3607 22.236C43.7774 27.3471 40.083 31.3471 39.583 32.2916C39.0552 33.2916 39.0274 34.7082 39.4441 35.4027C39.8607 36.1249 40.8052 36.486 41.6385 35.8749C42.4718 35.236 48.5274 28.5693 53.9718 23.8193C58.9441 19.4582 62.8052 16.7082 62.8052 16.7082C62.8052 16.7082 64.3607 13.9582 64.1107 13.3193C63.8607 12.6804 61.1663 12.5971 61.1663 12.5971L61.1385 12.5693Z" fill="#D9D9D9"/>
<path d="M61.1387 12.5415C61.1387 12.5415 65.3609 9.31932 69.9442 7.04154C74.1942 4.93043 78.4442 3.18043 79.222 4.7082C79.9442 6.15265 75.1942 8.15265 71.0276 10.7915C66.8609 13.4582 62.8331 16.6526 62.8331 16.6526C62.8331 16.6526 62.222 15.5415 61.8331 14.486C61.5831 13.8471 61.3609 13.2082 61.1942 12.5415H61.1387Z" fill="#CA2C31"/>
<path d="M64.6108 26.875C60.4441 23.0416 54.6386 24.0694 51.7775 27.4861C48.833 31.0139 49.0553 36.375 52.5275 39.625C55.6942 42.5694 61.5553 43.2361 65.083 39.0972C68.2219 35.4305 68.0275 30.0139 64.6108 26.875Z" fill="#E1E1E1"/>
<path d="M53.9161 28.8472C51.4439 31.2916 51.5828 36.0972 54.5272 38.3194C57.1105 40.2361 60.7494 40.1527 63.055 37.7916C65.3605 35.4583 65.3605 31.1805 63.1939 28.9861C60.7217 26.4583 56.7494 26.0694 53.9161 28.8472Z" fill="#3F545F"/>
<path d="M34.9716 55.0694C34.9716 55.0694 39.6104 50.3749 40.1104 50.8749C40.6104 51.3749 40.5549 54.236 38.3327 57.4027C36.1104 60.5694 31.2216 66.236 27.3327 70.0416C23.4993 73.7916 18.1382 78.0972 17.6104 78.0138C17.2216 77.9583 15.6105 77.1527 14.9716 76.3749C14.3327 75.5972 16.2216 71.9583 16.9716 70.7638C17.7216 69.5694 34.9438 55.0694 34.9438 55.0694H34.9716Z" fill="#A02524"/>
<path d="M13.4164 73.7638C13.3609 74.8471 14.9998 76.4026 14.9998 76.4026L40.1109 50.8749C40.1109 50.8749 38.9442 49.5415 35.472 51.7082C31.972 53.8749 28.9164 56.486 24.4164 60.8471C18.1386 66.9304 13.472 72.6804 13.4164 73.7638Z" fill="#CA2C31"/>
<path d="M11.7779 25.1528C10.9446 25.9861 10.9168 27.3194 11.8335 28.0694C12.6668 28.7639 14.0002 28.3194 14.5002 27.7083C15.0002 27.0972 14.9446 25.7639 14.2779 25.0972C13.6113 24.4305 12.2779 24.6528 11.7779 25.1528Z" fill="white"/>
<g opacity="0.5">
<path d="M28.2223 24.1803C27.5834 24.8748 27.8056 25.9026 28.389 26.2914C28.9723 26.6803 29.8612 26.6248 30.2779 26.1248C30.6667 25.6526 30.6945 24.7081 30.1112 24.1248C29.6112 23.6248 28.639 23.7359 28.2223 24.1803Z" fill="white"/>
</g>
<path d="M39.1105 6.37495C39.1105 6.37495 40.0272 3.76384 40.555 3.73606C41.1105 3.70828 41.8883 6.34717 41.8883 6.34717C41.8883 6.34717 44.5828 6.37495 44.7772 6.76384C44.9994 7.26384 43.055 8.98606 43.055 8.98606C43.055 8.98606 43.6939 11.5416 43.3883 11.8472C43.055 12.1805 40.7216 10.8472 40.7216 10.8472C40.7216 10.8472 38.3328 12.5138 37.805 12.0694C37.3605 11.6805 38.305 8.98606 38.305 8.98606C38.305 8.98606 36.055 7.34717 36.1661 6.87495C36.3328 6.23606 39.1105 6.37495 39.1105 6.37495ZM70.1661 68.875C71.0828 69.375 72.2216 69.0972 72.6383 68.1249C73.0272 67.2638 72.305 66.2361 71.6661 65.9583C71.0272 65.6805 69.9161 66.0416 69.4994 66.7638C69.1105 67.4861 69.6105 68.5694 70.1383 68.875H70.1661ZM83.0272 46.7916C82.4994 45.9861 81.3883 45.7361 80.6661 46.3749C79.9716 47.0138 80.1383 47.9861 80.5272 48.4861C80.9161 48.9861 81.9994 49.1805 82.6383 48.7638C83.2772 48.3472 83.3328 47.2638 83.0272 46.7916Z" fill="white"/>
</g>
<defs>
<clipPath id="clip0_1887_21163">
<rect width="90" height="90.3611" fill="white" transform="translate(0.333008 0.819336)"/>
</clipPath>
</defs>
</svg>
