<svg width="91" height="92" viewBox="0 0 91 92" fill="none" xmlns="http://www.w3.org/2000/svg">
<g clip-path="url(#clip0_1887_12878)">
<path d="M90.6663 29.8875C90.6663 37.595 87.7241 44.4216 81.9152 50.294C77.1625 54.9185 71.7308 57.6344 65.5447 58.5887C59.3586 59.543 53.3989 58.5887 47.7409 55.9461L12.1331 90.6665C12.1331 90.6665 11.9068 90.6665 11.7559 90.8133L3.0049 91.1804C3.0049 91.1804 2.55226 91.1804 2.47682 91.0335L1.04346 89.6389C1.04346 89.6389 0.892579 89.4186 0.892579 89.2718L1.26978 80.4633C1.26978 80.4633 1.26978 80.2431 1.42066 80.0963L2.85402 78.4814C2.85402 78.4814 3.08034 77.9675 2.85402 77.6005L0.892579 75.692C0.892579 75.692 0.666259 75.1781 0.892579 74.8111L4.8909 70.9207C4.8909 70.9207 5.19266 70.7739 5.41898 70.7739L9.79451 71.1409C10.2471 71.1409 10.5489 70.9941 10.5489 70.6271L10.9261 65.4887C10.9261 65.4887 10.9261 65.2685 11.077 65.1217L15.6034 60.4972C15.6034 60.4972 15.9052 60.3504 16.1315 60.3504L20.2807 61.2313C20.2807 61.2313 20.7333 61.2313 20.8088 61.0845L25.1843 56.827C25.1843 56.827 25.3352 56.5334 25.3352 56.3132V51.395C25.3352 51.395 25.3352 50.9546 25.486 50.8812L33.8599 42.7333C31.0686 37.228 30.1633 31.429 31.144 25.4098C32.1248 19.3906 34.916 14.1055 39.5179 9.481C45.704 3.82885 52.7199 0.966064 60.7165 0.966064C68.7132 0.966064 75.7291 3.82885 81.9152 9.481C87.7241 15.5002 90.6663 22.3268 90.6663 30.1077V29.8875ZM79.5766 18.1427C79.5766 16.381 78.8976 14.8395 77.6151 13.5183C76.2572 12.197 74.673 11.6097 72.8624 11.6097C71.0518 11.6097 69.4676 12.2704 68.1097 13.5183C66.7518 14.8395 66.0728 16.381 66.0728 18.1427C66.0728 19.9045 66.7518 21.446 68.1097 22.7672C69.4676 24.0885 71.0518 24.6758 72.8624 24.6758C74.673 24.6758 76.2572 24.0151 77.6151 22.7672C78.973 21.5194 79.5766 19.9045 79.5766 18.1427Z" fill="#FFB636"/>
</g>
<defs>
<clipPath id="clip0_1887_12878">
<rect width="90" height="90.3611" fill="white" transform="translate(0.666016 0.819336)"/>
</clipPath>
</defs>
</svg>
