<svg width="90" height="92" viewBox="0 0 90 92" fill="none" xmlns="http://www.w3.org/2000/svg">
<g clip-path="url(#clip0_1887_7444)">
<path d="M15.5054 17.4543C23.2117 9.67896 32.9297 5.68288 44.6285 5.43506C56.2035 5.68288 65.8596 9.67896 73.5659 17.4543C81.2722 25.2296 85.2956 34.9256 85.667 46.5111C85.2956 58.0967 81.2722 67.7926 73.5659 75.5679C65.8596 83.3433 56.2035 87.3393 44.6285 87.5872C32.9297 87.3393 23.2117 83.3433 15.5054 75.5679C7.79907 67.7926 3.77569 58.0967 3.4043 46.5111C3.77569 34.9256 7.79907 25.2296 15.5054 17.4543Z" fill="#E5E4DF"/>
<path d="M67.9337 46.511C67.6861 53.0783 65.3959 58.5922 61.0321 63.022C56.6682 67.4518 51.1903 69.7131 44.629 69.837C37.944 69.7131 32.4351 67.4518 28.1332 63.022C23.8312 58.5922 21.5101 53.1092 21.1387 46.511C21.2625 39.9438 23.4289 34.4918 27.6689 30.186C31.909 25.8801 37.5417 23.5568 44.5981 23.1851C51.1593 23.1851 56.6373 25.4154 61.0011 29.9072C65.3649 34.3989 67.6552 39.9129 67.9028 46.511H67.9337Z" fill="#E5E4DF"/>
<path d="M44.6286 91.1804C31.9704 90.8087 21.4168 86.4409 12.9986 78.077C4.58047 69.7131 0.247593 59.1807 0 46.511C0.247593 33.9651 4.58047 23.4638 12.9986 15.0379C21.4168 6.5811 31.9704 2.21328 44.6286 1.84155C57.163 2.21328 67.6547 6.5811 76.0729 15.0379C84.4911 23.4638 88.8239 33.9651 89.0715 46.511C88.8239 59.1807 84.4911 69.7131 76.0729 78.077C67.6547 86.4409 57.163 90.8087 44.6286 91.1804ZM44.6286 10.2984C34.3535 10.6701 25.8116 14.2015 19.0027 20.9856C12.1939 27.7387 8.66575 36.2575 8.41816 46.542C8.66575 56.8265 12.1939 65.3762 19.0027 72.1913C25.8116 79.0063 34.3535 82.5377 44.6286 82.7855C54.7799 82.5377 63.26 79.0063 70.0688 72.1913C76.8776 65.3762 80.4058 56.8265 80.6534 46.542C80.4058 36.2575 76.8776 27.7387 70.0688 20.9856C63.26 14.2325 54.7799 10.6701 44.6286 10.2984Z" fill="#CA2C31"/>
<path d="M44.6282 73.3995C36.9837 73.1517 30.6392 70.5496 25.6254 65.5932C20.6117 60.6368 17.981 54.2555 17.7334 46.4802C17.7334 38.9527 20.2093 32.6642 25.1612 27.6459C30.113 22.6276 36.5505 19.9325 44.4115 19.5608C52.056 19.6847 58.4315 22.2868 63.5071 27.3671C68.5828 32.4474 71.1825 38.8287 71.3063 46.4802C71.1825 54.1316 68.5828 60.482 63.5071 65.5003C58.4315 70.5186 52.1179 73.1517 44.5972 73.3995H44.6282ZM44.9996 28.7301H44.6282C39.3668 28.9779 35.0649 30.7436 31.7224 34.0272C28.3799 37.3109 26.7705 41.4928 26.8943 46.5731C27.0181 51.6534 28.7513 55.8353 32.0938 59.1189C35.4363 62.4026 39.6144 64.0444 44.6282 64.0444C49.6419 64.0444 53.8201 62.3716 57.1626 59.026C60.5051 55.6805 62.1763 51.4985 62.1763 46.4802C62.1763 41.4618 60.536 37.2799 57.2554 33.9343C53.9748 30.5887 49.8895 28.854 44.9686 28.7301H44.9996Z" fill="#CA2C31"/>
<path d="M39.3363 41.3997C40.698 40.0367 42.4312 39.3242 44.5357 39.3242C46.6403 39.3242 48.3734 40.0057 49.7352 41.3997C51.0969 42.7627 51.8088 44.4665 51.8088 46.511C51.8088 48.5555 51.1279 50.2592 49.7352 51.6222C48.3734 52.9853 46.6403 53.6977 44.5357 53.6977C42.4312 53.6977 40.698 53.0162 39.3363 51.6222C37.9745 50.2592 37.2627 48.5555 37.2627 46.511C37.2627 44.4665 37.9436 42.7627 39.3363 41.3997Z" fill="#CA2C31"/>
<path d="M45.5263 47.2236C44.8144 47.8121 44.1645 47.8121 43.5455 47.2236C42.9575 46.635 42.9575 45.9535 43.5455 45.241L49.0854 39.696L50.8805 41.6786L45.4953 47.2545L45.5263 47.2236Z" fill="#D9D9D9"/>
<path d="M89.9691 14.2325C90.5571 17.5781 84.8934 20.0873 72.9471 21.76L55.5537 41.3068C54.7181 42.1432 53.7277 42.5769 52.5826 42.5769C51.4375 42.5769 50.4471 42.1742 49.5496 41.3068C48.652 40.4704 48.2188 39.4791 48.2188 38.333C48.2188 37.1868 48.6211 36.1645 49.4877 35.2042L69.0165 17.9808C70.6568 6.02353 73.1637 0.323681 76.5062 0.850297C79.8487 1.37691 80.1582 5.58984 77.4038 13.4891C85.172 10.6082 89.3501 10.856 89.9381 14.2016L89.9691 14.2325Z" fill="#0074A8"/>
</g>
<defs>
<clipPath id="clip0_1887_7444">
<rect width="90" height="90.3611" fill="white" transform="translate(0 0.819336)"/>
</clipPath>
</defs>
</svg>
