<svg width="91" height="92" viewBox="0 0 91 92" fill="none" xmlns="http://www.w3.org/2000/svg">
<g clip-path="url(#clip0_1887_5703)">
<g clip-path="url(#clip1_1887_5703)">
<path d="M49.4056 53.4124C34.693 52.856 30.0239 61.9281 24.501 65.7343C20.265 68.6576 13.2737 68.1737 13.2737 68.1737C7.96526 69.0648 4.47168 71.9195 4.47168 77.0523C4.47168 82.185 7.15683 86.6525 14.3048 86.6525L62.39 85.0155C62.39 85.0155 64.3533 53.9809 49.3973 53.4165L49.4056 53.4124Z" fill="#D3CAC3"/>
<path d="M4.35171 62.662L19.4974 25.4785L30.0029 29.4178C30.0029 29.4178 26.5052 47.6426 26.101 52.1706C25.6968 56.6986 30.0029 67.3149 29.1037 76.6935C28.1014 87.2009 23.8613 89.9508 15.777 90.8499C10.118 91.483 3.73714 88.975 1.96354 85.8018C-0.651485 81.1166 -1.4063 75.258 4.35171 62.662Z" fill="#90A4AE"/>
<path d="M18.4006 28.0953C18.9863 28.059 19.8607 27.8211 21.4199 29.6638C22.5748 31.0306 25.1609 33.3652 28.1884 33.5224C28.7122 31.0226 29.0917 29.2767 29.0917 29.2767L19.4854 25.4866L18.3965 28.0953H18.4006Z" fill="#466B7D"/>
<path d="M7.52357 73.3791C7.52357 73.3791 19.0313 39.4576 23.5561 27.0913L19.485 25.4866L4.35171 62.662C-1.4063 75.258 -0.651485 81.1085 1.96354 85.8018C3.73714 88.9831 8.93007 91.6442 14.5891 91.0153C15.9873 90.858 17.2371 90.5919 18.3714 90.2209C14.3416 83.806 7.52357 73.3791 7.52357 73.3791Z" fill="url(#paint0_linear_1887_5703)"/>
<path d="M18.4005 28.0953C18.9862 28.059 19.8606 27.8211 21.4197 29.6638C22.5746 31.0306 26.0682 34.0224 29.0957 34.1756C29.6195 31.6757 29.9949 29.4259 29.9949 29.4259L19.4894 25.4866L18.4005 28.0953ZM26.5095 56.5292C26.5095 56.5292 26.5549 60.8919 22.752 64.0893C16.8661 69.0406 4.9005 66.2142 2.77631 79.911C2.21535 83.5318 0.693359 82.931 0.693359 82.931C0.693359 82.931 2.66907 91.6684 14.3377 91.0354C22.9417 90.2854 27.7469 84.2334 28.8441 77.3305C29.9907 70.1535 26.5095 56.5252 26.5095 56.5252V56.5292Z" fill="#466B7D"/>
<path d="M58.8304 52.8561C39.6178 52.8561 33.9423 58.5372 29.3928 63.1015C27.1737 65.3312 25.4166 67.0932 22.3108 67.8835C19.572 68.581 15.3277 69.4358 14.0945 69.6818C14.078 69.6818 14.0656 69.6898 14.0491 69.6898C8.07249 70.7019 4.50879 74.7823 4.50879 80.6046C4.50879 83.5278 5.50695 86.068 7.39192 87.9429C8.87679 89.4226 11.6816 91.1766 16.594 91.1766H16.6683L69.1131 89.4871C69.1131 89.4871 73.8359 64.8917 66.7621 56.4648C64.7699 54.102 62.0229 52.8521 58.8222 52.8521L58.8304 52.8561Z" fill="url(#paint1_linear_1887_5703)"/>
<path d="M54.6478 59.7104C41.4283 57.4202 36.2767 64.069 29.1039 69.5325C25.8496 72.0162 17.0393 72.9234 17.0393 72.9234C11.7309 73.8145 8.2373 76.6692 8.2373 81.8019C8.2373 86.9347 10.9225 91.1401 18.0705 91.1401L66.1556 89.5031C66.1556 89.5031 69.3728 62.2587 54.6396 59.7104H54.6478Z" fill="#D9D9D9"/>
<path d="M50.6475 65.5125C50.6722 62.5329 50.5856 60.1822 50.5237 58.4726V58.3839C50.4495 56.259 50.1731 54.6301 49.8143 53.364C49.6617 53.3882 49.5008 53.4003 49.3523 53.4245C46.1186 53.2229 42.9014 53.872 42.9014 53.872C42.9014 53.872 46.6053 54.7873 47.0178 60.5935C47.1539 62.5208 47.2075 63.0167 47.1621 66.1698C46.8033 91.8297 68.3752 89.5395 68.3752 89.5395L68.6103 88.2694C55.7414 85.9792 50.5361 79.3908 50.6433 65.5166L50.6475 65.5125Z" fill="#466B7D"/>
<path d="M18.2812 87.9872C21.3975 87.9872 23.9237 85.5177 23.9237 82.4714C23.9237 79.4251 21.3975 76.9556 18.2812 76.9556C15.1649 76.9556 12.6387 79.4251 12.6387 82.4714C12.6387 85.5177 15.1649 87.9872 18.2812 87.9872Z" fill="#D9D9D9"/>
<path d="M18.4171 86.4348C21.1689 86.4348 23.3997 84.2541 23.3997 81.5641C23.3997 78.874 21.1689 76.6934 18.4171 76.6934C15.6653 76.6934 13.4346 78.874 13.4346 81.5641C13.4346 84.2541 15.6653 86.4348 18.4171 86.4348Z" fill="#CA2C31"/>
<path d="M18.4171 86.4348C21.1689 86.4348 23.3997 84.2541 23.3997 81.5641C23.3997 78.874 21.1689 76.6934 18.4171 76.6934C15.6653 76.6934 13.4346 78.874 13.4346 81.5641C13.4346 84.2541 15.6653 86.4348 18.4171 86.4348Z" fill="#D9D9D9"/>
<path d="M22.0292 84.7148C23.6303 83.1497 23.6303 80.612 22.0292 79.0469C20.4281 77.4817 17.8322 77.4817 16.2311 79.0469C14.63 80.612 14.63 83.1497 16.2311 84.7148C17.8322 86.28 20.4281 86.28 22.0292 84.7148Z" fill="#C6B3A1"/>
<path d="M89.4148 66.061H89.4313C89.4395 53.3238 78.3112 45.0178 65.8053 45.4935C54.2522 45.9411 48.1064 53.4286 48.1064 53.4286C48.1064 53.4286 51.6578 56.7429 50.0079 65.436L50.0244 65.4521C49.9625 65.69 49.9089 65.936 49.8553 66.1819C47.7022 76.8749 54.8214 87.2453 65.7517 89.35C76.682 91.4547 87.2865 84.4874 89.4313 73.7944C89.9634 71.1534 89.9345 68.5366 89.4148 66.061Z" fill="#D9D9D9"/>
<path d="M89.4148 66.0609L90.7141 66.1859C90.3717 53.6947 78.3071 45.0177 65.8053 45.4935C54.2522 45.9411 48.1064 53.4285 48.1064 53.4285C48.1064 53.4285 48.7375 53.9205 49.0097 59.1984C49.1005 60.9604 49.1541 63.2506 49.1335 66.2383C49.0427 78.1812 54.8296 87.2452 65.7599 89.3459C76.6903 91.4507 88.0454 84.826 90.1902 74.1331C90.7141 71.4921 89.9304 68.5326 89.4148 66.0569V66.0609Z" fill="#CA2C31"/>
<path d="M71.3405 88.0719C82.154 88.0719 90.9202 79.5026 90.9202 68.9318C90.9202 58.3611 82.154 49.7917 71.3405 49.7917C60.5269 49.7917 51.7607 58.3611 51.7607 68.9318C51.7607 79.5026 60.5269 88.0719 71.3405 88.0719Z" fill="#90A4AE"/>
<path d="M81.5213 78.67C86.0862 74.2076 86.0862 66.9726 81.5213 62.5101C76.9563 58.0477 69.5551 58.0477 64.9902 62.5101C60.4252 66.9726 60.4252 74.2076 64.9902 78.67C69.5551 83.1325 76.9563 83.1325 81.5213 78.67Z" fill="#466B7D"/>
<path d="M81.3087 76.5063C85.5418 72.3682 85.5418 65.6591 81.3087 61.521C77.0755 57.383 70.2123 57.383 65.9792 61.521C61.7461 65.6591 61.7461 72.3682 65.9792 76.5063C70.2123 80.6444 77.0755 80.6444 81.3087 76.5063Z" fill="#A38E7A"/>
<path d="M81.3087 76.5066C85.5418 72.3685 85.5418 65.6593 81.3087 61.5213C77.0755 57.3832 70.2123 57.3832 65.9792 61.5213C61.7461 65.6593 61.7461 72.3685 65.9792 76.5066C70.2123 80.6446 77.0755 80.6446 81.3087 76.5066Z" fill="url(#paint2_radial_1887_5703)"/>
<path d="M74.9868 78.6206C80.2376 78.6206 84.4941 74.4597 84.4941 69.3268C84.4941 64.194 80.2376 60.033 74.9868 60.033C69.7361 60.033 65.4795 64.194 65.4795 69.3268C65.4795 74.4597 69.7361 78.6206 74.9868 78.6206Z" fill="#C6B3A1"/>
<path d="M48.7665 14.9146L42.1711 11.5479L36.1409 17.8459L35.9512 22.894L45.6565 26.3535C45.6565 26.3535 50.6473 23.8415 50.8535 23.7448C51.0598 23.648 50.771 19.624 50.771 19.624L48.7706 14.9186L48.7665 14.9146Z" fill="#212121"/>
<path d="M40.3236 16.5031C41.3713 13.9831 42.3612 14.0718 43.512 14.3903C44.6834 14.7169 45.4671 16.0555 44.5597 18.0272L43.0005 22.5713L48.2347 21.0109L50.4249 23.2326L51.6788 25.926C51.6788 25.926 46.8117 27.6799 43.7512 27.8009C40.6949 27.9218 39.012 25.4663 39.012 25.4663L36.8672 24.4986C36.8672 24.4986 40.0019 17.2853 40.3195 16.5071L40.3236 16.5031Z" fill="#466B7D"/>
<path d="M45.6318 9.93898C45.7226 7.9915 45.8298 5.48358 45.8298 5.43116L45.7844 5.41503C45.4792 5.35455 43.4788 4.97554 40.9008 4.68523C37.9187 4.35057 36.306 4.86264 34.8459 6.50771L26.3656 14.9024C23.9857 17.8014 25.8789 21.7367 25.8789 21.7367L36.603 23.5511C36.603 23.5511 43.3138 14.971 45.0667 12.7171C45.1657 12.2493 45.3843 11.1486 45.6277 9.93494L45.6318 9.93898Z" fill="#6D94A5"/>
<path d="M25.8782 21.7367C25.8782 21.7367 23.9932 17.8015 26.3649 14.9024L34.8534 6.49966C36.3053 4.85458 37.9263 4.34252 40.9084 4.67718C43.7091 4.99571 45.8291 5.41504 45.8291 5.41504C45.8291 5.41504 45.561 12.0477 45.4868 12.1647C45.4043 12.2856 36.6023 23.539 36.6023 23.539L25.8782 21.7327V21.7367Z" fill="#D3CAC3"/>
<path d="M31.7441 16.7934L42.8436 5.86255L44.0975 14.2935L37.4032 22.5673L33.6621 19.0272L31.7441 16.7894V16.7934Z" fill="#90A4AE"/>
<path d="M48.8033 8.45932C48.1888 6.48765 47.5247 5.87881 45.8295 5.42722C42.5421 4.54421 40.1622 8.02386 42.1709 11.5479C44.3528 15.3864 47.4958 21.7046 47.4958 21.7046L52.334 25.4906C53.0352 25.2366 53.8313 24.0391 53.2373 22.0916L48.8033 8.46335V8.45932Z" fill="#90A4AE"/>
<path d="M47.991 7.06009C47.9002 6.97945 47.9662 6.4956 47.2692 6.00369C46.8443 5.70532 46.3246 5.55211 45.8255 5.41502C42.5382 4.532 40.1583 8.01165 42.167 11.5356C43.9488 14.6645 47.4094 21.6198 47.4094 21.6198C47.4094 21.6198 47.925 23.406 48.2632 23.4947C48.6757 23.5995 49.1088 23.3455 49.3191 22.9907C49.5336 22.6318 49.381 22.2851 49.3562 21.8738C49.3562 21.8738 44.5098 12.1929 44.0313 11.3099C43.5529 10.4268 47.2403 6.3948 47.9951 7.06412L47.991 7.06009Z" fill="#466B7D"/>
<path d="M45.8747 12.8461C47.8064 12.8461 49.3724 11.3153 49.3724 9.42698C49.3724 7.53863 47.8064 6.00781 45.8747 6.00781C43.9429 6.00781 42.377 7.53863 42.377 9.42698C42.377 11.3153 43.9429 12.8461 45.8747 12.8461Z" fill="#466B7D"/>
<path d="M46.1718 12.2412C47.9737 12.2412 49.4344 10.8133 49.4344 9.05189C49.4344 7.29047 47.9737 5.86255 46.1718 5.86255C44.3699 5.86255 42.9092 7.29047 42.9092 9.05189C42.9092 10.8133 44.3699 12.2412 46.1718 12.2412Z" fill="#A38E7A"/>
<path d="M46.1718 12.2412C47.9737 12.2412 49.4344 10.8133 49.4344 9.05189C49.4344 7.29047 47.9737 5.86255 46.1718 5.86255C44.3699 5.86255 42.9092 7.29047 42.9092 9.05189C42.9092 10.8133 44.3699 12.2412 46.1718 12.2412Z" fill="url(#paint3_radial_1887_5703)"/>
<path d="M46.7497 11.6485C48.203 11.6485 49.3812 10.4968 49.3812 9.0761C49.3812 7.65538 48.203 6.50366 46.7497 6.50366C45.2963 6.50366 44.1182 7.65538 44.1182 9.0761C44.1182 10.4968 45.2963 11.6485 46.7497 11.6485Z" fill="#C6B3A1"/>
<path d="M50.5237 26.1761C52.1866 26.1761 53.5347 24.8583 53.5347 23.2327C53.5347 21.6071 52.1866 20.2893 50.5237 20.2893C48.8608 20.2893 47.5127 21.6071 47.5127 23.2327C47.5127 24.8583 48.8608 26.1761 50.5237 26.1761Z" fill="#466B7D"/>
<path d="M50.6759 20.4829C52.1567 20.4829 53.3528 21.6562 53.3528 23.0997C53.3528 24.5432 52.1525 25.7165 50.6759 25.7165C49.1993 25.7165 47.999 24.5432 47.999 23.0997C47.999 21.6562 49.1993 20.4829 50.6759 20.4829Z" fill="#A38E7A"/>
<path d="M50.6759 20.4829C52.1567 20.4829 53.3528 21.6562 53.3528 23.0997C53.3528 24.5432 52.1525 25.7165 50.6759 25.7165C49.1993 25.7165 47.999 24.5432 47.999 23.0997C47.999 21.6562 49.1993 20.4829 50.6759 20.4829Z" fill="url(#paint4_radial_1887_5703)"/>
<path d="M51.2248 21.1279C52.4168 21.1279 53.3861 22.0714 53.3861 23.2407C53.3861 24.41 52.4209 25.3535 51.2248 25.3535C50.0286 25.3535 49.0635 24.41 49.0635 23.2407C49.0635 22.0714 50.0286 21.1279 51.2248 21.1279Z" fill="#C6B3A1"/>
<path d="M17.8687 20.3861C18.8215 15.8057 23.0699 14.3985 27.1574 14.7735C30.7252 15.092 32.9319 15.6283 32.9319 15.6283C32.4988 17.2209 32.4823 28.5066 31.5419 29.8734C30.4942 31.3814 25.3426 30.325 22.0511 27.9018C20.096 26.4664 18.9535 26.8091 18.9535 26.8091C18.9535 26.8091 17.2871 23.1803 17.8728 20.3861H17.8687Z" fill="#D9C6B6"/>
<path d="M22.6289 20.894C23.7591 16.7531 27.9208 14.2371 31.9217 15.2814C35.9226 16.3257 38.2531 20.5271 37.1229 24.672C35.9928 28.817 31.831 31.3289 27.8301 30.2846C23.8292 29.2403 21.4987 25.0389 22.6289 20.894Z" fill="#90A4AE"/>
<path d="M25.7796 21.8417C26.39 19.4789 28.836 17.6564 31.8717 18.5838C34.2846 19.3217 46.2172 23.64 46.2172 23.64L46.4895 29.3413C46.4895 29.3413 32.676 28.805 31.352 28.6558C25.6229 28.0107 25.1609 24.2327 25.7755 21.8377L25.7796 21.8417Z" fill="#466B7D"/>
<path d="M48.432 27.4422C48.729 26.1035 47.9082 24.7931 46.5924 24.4101V24.3859C46.5924 24.3859 35.5549 20.3256 33.0842 19.7974C30.6135 19.2733 28.18 20.8095 27.6479 23.2206C27.1117 25.6358 28.6832 28.0147 31.1498 28.5348C32.3583 28.7889 44.0352 29.3977 45.7139 29.4864C45.7428 29.4864 45.784 29.4945 45.8129 29.4945C45.883 29.4945 45.9201 29.5025 45.9201 29.5025V29.4864C47.1204 29.4259 48.1639 28.6155 48.432 27.4341V27.4422Z" fill="#90A4AE"/>
<path d="M32.7457 27.9904C34.6775 27.9904 36.2435 26.4596 36.2435 24.5713C36.2435 22.6829 34.6775 21.1521 32.7457 21.1521C30.814 21.1521 29.248 22.6829 29.248 24.5713C29.248 26.4596 30.814 27.9904 32.7457 27.9904Z" fill="#466B7D"/>
<path d="M36.2173 24.9381C36.6313 23.2238 35.5451 21.506 33.7914 21.1014C32.0377 20.6968 30.2805 21.7585 29.8666 23.4728C29.4527 25.1872 30.5388 26.9049 32.2925 27.3095C34.0462 27.7141 35.8034 26.6524 36.2173 24.9381Z" fill="#A38E7A"/>
<path d="M36.2173 24.9381C36.6313 23.2238 35.5451 21.506 33.7914 21.1014C32.0377 20.6968 30.2805 21.7585 29.8666 23.4728C29.4527 25.1872 30.5388 26.9049 32.2925 27.3095C34.0462 27.7141 35.8034 26.6524 36.2173 24.9381Z" fill="url(#paint5_radial_1887_5703)"/>
<path d="M33.6081 21.8296C35.06 21.8296 36.2396 22.9828 36.2396 24.402C36.2396 25.8213 35.06 26.9745 33.6081 26.9745C32.1562 26.9745 30.9766 25.8213 30.9766 24.402C30.9766 22.9828 32.1562 21.8296 33.6081 21.8296Z" fill="#C6B3A1"/>
</g>
</g>
<defs>
<linearGradient id="paint0_linear_1887_5703" x1="-23.2281" y1="4.0427" x2="-55.4102" y2="91.3405" gradientUnits="userSpaceOnUse">
<stop offset="0.31" stop-color="#D3CAC3"/>
<stop offset="0.74" stop-color="#6D94A5"/>
</linearGradient>
<linearGradient id="paint1_linear_1887_5703" x1="-14.892" y1="46.1826" x2="-14.892" y2="61.5518" gradientUnits="userSpaceOnUse">
<stop offset="0.29" stop-color="#D3CAC3"/>
<stop offset="1" stop-color="#6D94A5"/>
</linearGradient>
<radialGradient id="paint2_radial_1887_5703" cx="0" cy="0" r="1" gradientUnits="userSpaceOnUse" gradientTransform="translate(15.8822 32.9134) scale(14.783 14.4511)">
<stop stop-color="white"/>
<stop offset="0.92" stop-color="#CDD7DB"/>
</radialGradient>
<radialGradient id="paint3_radial_1887_5703" cx="0" cy="0" r="1" gradientUnits="userSpaceOnUse" gradientTransform="translate(-7.1153 -17.2313) rotate(11.934) scale(4.79287 4.69456)">
<stop stop-color="white"/>
<stop offset="0.92" stop-color="#CDD7DB"/>
</radialGradient>
<radialGradient id="paint4_radial_1887_5703" cx="0" cy="0" r="1" gradientUnits="userSpaceOnUse" gradientTransform="translate(-2.71224 -3.38593) rotate(11.934) scale(3.93027 3.84966)">
<stop stop-color="white"/>
<stop offset="0.92" stop-color="#CDD7DB"/>
</radialGradient>
<radialGradient id="paint5_radial_1887_5703" cx="0" cy="0" r="1" gradientUnits="userSpaceOnUse" gradientTransform="translate(-19.6474 -2.8489) rotate(11.9242) scale(4.79288 4.69455)">
<stop stop-color="white"/>
<stop offset="0.92" stop-color="#CDD7DB"/>
</radialGradient>
<clipPath id="clip0_1887_5703">
<rect width="90" height="90.3611" fill="white" transform="translate(0.333008 0.819336)"/>
</clipPath>
<clipPath id="clip1_1887_5703">
<rect width="90.932" height="86.5961" fill="white" transform="translate(-0.0117188 4.58447)"/>
</clipPath>
</defs>
</svg>
