<svg width="12" height="10" viewBox="0 0 12 10" fill="none" xmlns="http://www.w3.org/2000/svg">
<path fill-rule="evenodd" clip-rule="evenodd" d="M11.4433 0.774525C11.7497 1.11796 11.7196 1.64474 11.3762 1.95113L9.49606 3.62844C8.27116 4.7212 7.15281 5.92784 6.15609 7.23209L4.60946 9.25592C4.45237 9.46148 4.20873 9.58241 3.95002 9.58325C3.69131 9.58408 3.44689 9.46471 3.28848 9.26017L2.55229 8.30956C2.04667 7.6567 1.45516 7.07514 0.793807 6.58069L0.501017 6.36178C0.13241 6.0862 0.0570021 5.56398 0.332588 5.19537C0.608174 4.82676 1.1304 4.75136 1.499 5.02694L1.79179 5.24584C2.57339 5.8302 3.27245 6.51749 3.87 7.28906L3.94294 7.38325L4.83185 6.22009C5.89265 4.83199 7.08289 3.54777 8.38654 2.38475L10.2667 0.707443C10.6101 0.401058 11.1369 0.431092 11.4433 0.774525Z" fill="#27AE60"/>
</svg>
