<svg width="20" height="20" viewBox="0 0 20 20" fill="none" xmlns="http://www.w3.org/2000/svg">
<path fill-rule="evenodd" clip-rule="evenodd" d="M2.66667 18.0001C2.66667 18.7365 3.26362 19.3334 4 19.3334C4.73638 19.3334 5.33333 18.7365 5.33333 18.0001L5.33333 11.1058C6.88692 10.5567 8 9.07504 8 7.33341C8 5.59179 6.88692 4.11014 5.33333 3.56102V2.00008C5.33333 1.2637 4.73638 0.666748 4 0.666748C3.26362 0.666748 2.66667 1.2637 2.66667 2.00008V3.56102C1.11308 4.11014 1.52258e-07 5.59179 0 7.33342C-1.52258e-07 9.07504 1.11308 10.5567 2.66667 11.1058L2.66667 18.0001ZM4.00161 5.33342C5.10544 5.33428 6 6.22938 6 7.33342C6 8.43798 5.10457 9.33341 4 9.33341C2.89543 9.33342 2 8.43798 2 7.33342C2 6.22938 2.89456 5.33429 3.99839 5.33342L4.00161 5.33342Z" fill="#ABABAB"/>
<path fill-rule="evenodd" clip-rule="evenodd" d="M14 18.0001C14 18.7365 14.597 19.3334 15.3333 19.3334C16.0697 19.3334 16.6667 18.7365 16.6667 18.0001V16.4391C18.2203 15.89 19.3333 14.4084 19.3333 12.6667C19.3333 10.9251 18.2203 9.44347 16.6667 8.89436V2.00008C16.6667 1.2637 16.0697 0.666748 15.3333 0.666748C14.597 0.666748 14 1.2637 14 2.00008V8.89436C12.4464 9.44347 11.3333 10.9251 11.3333 12.6667C11.3333 14.4084 12.4464 15.89 14 16.4391L14 18.0001ZM15.3333 14.6667C16.4379 14.6667 17.3333 13.7713 17.3333 12.6667C17.3333 11.5622 16.4379 10.6667 15.3333 10.6667C14.2288 10.6667 13.3333 11.5622 13.3333 12.6667C13.3333 13.7713 14.2288 14.6667 15.3333 14.6667Z" fill="#ABABAB"/>
</svg>
