<svg width="19" height="21" viewBox="0 0 19 21" fill="none" xmlns="http://www.w3.org/2000/svg">
<path d="M13.9765 5.82091C14.8738 5.26734 15.4718 4.2753 15.4718 3.14358C15.4718 1.40743 14.0644 0 12.3283 0C10.5921 0 9.18468 1.40743 9.18468 3.14358C9.18468 4.08199 9.59587 4.92437 10.2479 5.50037C9.3719 5.86234 8.60637 6.45027 8.03022 7.20536L6.39075 9.35406C6.1445 9.67679 5.93566 10.0264 5.76822 10.3962L3.51685 15.3686C3.47444 15.4623 3.40581 15.5416 3.31925 15.5971L0.702723 17.2738C0.495746 17.4065 0.334117 17.5991 0.239385 17.8259L0.0941042 18.1738C-0.204333 18.8884 0.236659 19.6955 0.999278 19.8303L1.88928 19.9877C2.9092 20.168 3.95951 20.0495 4.91356 19.6463L6.53755 18.96C7.29623 18.6394 7.97096 18.1486 8.50953 17.5254L10.5441 15.1713C10.6197 15.0838 10.6824 14.9859 10.7302 14.8806L12.5886 10.7877C12.6491 10.6546 12.8129 10.6052 12.9369 10.6826L13.5819 11.0857C14.6111 11.7287 15.8278 12.0041 17.0335 11.8669L17.2422 11.8432C17.7124 11.7897 18.1081 11.4668 18.2549 11.017L18.3768 10.6434C18.5678 10.0582 18.2886 9.42298 17.7284 9.16792L16.2816 8.50923C16.1915 8.46822 16.1147 8.4029 16.0597 8.32061L15.3776 7.29984C15.1248 6.92138 14.8248 6.57663 14.4849 6.27387L13.9765 5.82091Z" fill="#D8481A"/>
<path d="M4.03406 6.81914C4.6794 6.21175 5.77171 5.84275 6.58592 5.65365C6.84337 5.59386 7.01569 5.83525 6.86402 6.0517C6.58393 6.45141 6.18591 6.95088 5.89602 7.27859C5.14473 8.12787 4.75542 8.89305 4.44104 9.51096C4.38854 9.61414 4.33813 9.71322 4.28848 9.80789C4.16368 10.0458 3.87386 10.068 3.73198 9.83982C3.55214 9.55064 3.35208 9.17715 3.23607 8.89874C2.99426 8.31838 3.13531 7.66501 4.03406 6.81914Z" fill="#D8481A"/>
<path d="M12.7648 14.5401C12.1834 15.5093 11.1103 17.226 10.6597 17.6766C10.3205 18.0158 10.0963 18.351 9.97039 18.5822C9.90051 18.7105 9.95911 18.8632 10.089 18.9301L11.5061 19.6594C12.3686 20.0544 14.5481 20.617 15.3026 19.9012C15.8148 19.4152 16.0142 18.8869 16.0945 18.4539C16.1593 18.1042 16.0864 17.7456 15.9221 17.4301C15.6134 16.8375 15.0601 15.9648 14.3837 15.4035C13.7494 14.8772 13.3292 14.587 13.0921 14.446C12.9748 14.3761 12.835 14.423 12.7648 14.5401Z" fill="#D8481A"/>
</svg>
