<svg width="18" height="16" viewBox="0 0 18 16" fill="none" xmlns="http://www.w3.org/2000/svg">
<path fill-rule="evenodd" clip-rule="evenodd" d="M9 14.2724C13.8325 14.2724 17.75 11.1894 17.75 7.38621C17.75 3.58306 13.8325 0.5 9 0.5C4.16751 0.5 0.25 3.58306 0.25 7.38621C0.25 9.44027 1.05437 12.5263 2.87892 14.5471C3.85909 15.5454 3.88406 15.5566 4.2844 15.7357C4.31677 15.7502 4.35159 15.7658 4.38957 15.7831C5.006 15.846 5.41269 15.1587 5.73379 14.616C5.91345 14.3124 6.06631 14.0541 6.21413 13.9978C7.12824 14.2527 7.97487 14.2724 9 14.2724ZM9.01962 8.6222C9.57221 8.6222 10.0202 8.17423 10.0202 7.62163C10.0202 7.06904 9.57221 6.62107 9.01962 6.62107C8.46702 6.62107 8.01905 7.06904 8.01905 7.62163C8.01905 8.17423 8.46702 8.6222 9.01962 8.6222ZM11.884 8.6222C12.4366 8.6222 12.8845 8.17423 12.8845 7.62163C12.8845 7.06904 12.4366 6.62107 11.884 6.62107C11.3314 6.62107 10.8834 7.06904 10.8834 7.62163C10.8834 8.17423 11.3314 8.6222 11.884 8.6222ZM7.15582 7.62164C7.15582 8.17424 6.70785 8.6222 6.15526 8.6222C5.60266 8.6222 5.1547 8.17424 5.1547 7.62164C5.1547 7.06905 5.60266 6.62108 6.15526 6.62108C6.70785 6.62108 7.15582 7.06905 7.15582 7.62164Z" fill="#D8481A"/>
</svg>
