<svg width="18" height="18" viewBox="0 0 18 18" fill="none" xmlns="http://www.w3.org/2000/svg">
<path fill-rule="evenodd" clip-rule="evenodd" d="M9 17.7891C13.8541 17.7891 17.7891 13.8541 17.7891 9C17.7891 4.14593 13.8541 0.210938 9 0.210938C4.14593 0.210938 0.210938 4.14593 0.210938 9C0.210938 13.8541 4.14593 17.7891 9 17.7891ZM8.26527 5.41986C7.29383 4.9136 6.12746 5.59796 6.09552 6.69293L6.03125 8.89657L6.09726 11.1359C6.12891 12.2098 7.25566 12.8955 8.22402 12.43L10.0283 11.5628C10.0994 11.5287 10.1671 11.4881 10.2307 11.4416L12.0363 10.1214C12.8579 9.52075 12.8451 8.29031 12.0112 7.7069L10.1351 6.3943L8.26527 5.41986Z" fill="#D8481A"/>
</svg>
