<svg width="18" height="16" viewBox="0 0 18 16" fill="none" xmlns="http://www.w3.org/2000/svg">
<path fill-rule="evenodd" clip-rule="evenodd" d="M0.279485 10.5924C0.00282 8.36279 0.629505 4.25808 0.987804 2.42705C0.995341 2.38856 1.00294 2.3517 1.01385 2.31403C1.05261 2.18011 1.17469 1.82551 1.47161 1.42531C1.76626 1.02818 2.40424 0.750823 2.84312 0.598194C3.14408 0.493538 3.45909 0.445184 3.77679 0.420635C5.06176 0.321358 8.71889 0.0718202 11.8925 0.171519C15.0331 0.270174 15.4757 2.13099 15.3044 3.04907C15.1634 3.80493 14.9899 5.75428 14.933 6.41958C14.9234 6.53152 14.9605 6.59531 15.0728 6.59244C15.2504 6.58788 15.5779 6.59985 16.1471 6.64601C18.039 6.79941 17.8753 9.57525 17.6697 11.4622C17.5819 12.268 17.4662 13.0855 17.3187 13.6755C17.0852 14.6094 16.1679 15.0979 15.6555 15.3026C15.4258 15.3944 15.1803 15.4313 14.9336 15.4487L9.86164 15.8061C9.75849 15.8133 9.65789 15.8167 9.55448 15.8157C8.72313 15.8079 4.70456 15.7533 2.84873 15.4226C0.831552 15.0631 0.638597 13.5003 0.308721 10.8287L0.30579 10.805C0.297129 10.7349 0.288377 10.664 0.279485 10.5924ZM14.8279 12.5219C14.7375 11.491 14.7457 9.09625 14.8279 8.00004H15.7939C15.9034 8.00004 16.0017 8.01343 16.0892 8.03511C16.5073 8.13878 16.6904 8.58621 16.7492 9.01291C16.7697 9.16168 16.7879 9.32013 16.8011 9.47993C16.87 10.3134 16.7481 11.0353 16.6359 11.6993C16.5881 11.9827 16.542 12.2555 16.5133 12.5219C16.438 12.9878 16.1557 13.9237 15.6295 13.9401C14.9718 13.9607 14.936 13.7552 14.8279 12.5219ZM11.2538 3.98078C9.95922 3.69783 6.72338 3.28739 4.17699 3.98984C3.80493 4.09247 3.58652 4.47729 3.68916 4.84935C3.7918 5.22141 4.17662 5.43981 4.54868 5.33716C6.77081 4.72418 9.74225 5.08106 10.9553 5.34622C11.3324 5.42863 11.7048 5.18977 11.7872 4.81274C11.8697 4.43568 11.6308 4.0632 11.2538 3.98078ZM4.36284 7.30121C3.97688 7.30121 3.664 7.6141 3.664 8.00004C3.664 8.38599 3.97688 8.69888 4.36284 8.69888H11.084C11.4699 8.69888 11.7828 8.38599 11.7828 8.00004C11.7828 7.6141 11.4699 7.30121 11.084 7.30121H4.36284ZM11.2904 12.0034C11.6624 11.9008 11.8808 11.516 11.7782 11.144C11.6756 10.7719 11.2907 10.5535 10.9187 10.6561C8.69656 11.2691 5.72511 10.9122 4.51206 10.6471C4.13501 10.5647 3.76254 10.8035 3.68012 11.1806C3.5977 11.5576 3.83655 11.9301 4.21361 12.0125C5.50814 12.2955 8.74399 12.7059 11.2904 12.0034Z" fill="#D8481A"/>
</svg>
