<svg width="16" height="16" viewBox="0 0 16 16" fill="none" xmlns="http://www.w3.org/2000/svg">
<path fill-rule="evenodd" clip-rule="evenodd" d="M7.52806 1.6989C4.53887 1.6989 2.11565 4.12212 2.11565 7.11131C2.11565 10.1005 4.53887 12.5237 7.52806 12.5237C10.5173 12.5237 12.9405 10.1005 12.9405 7.11131C12.9405 4.12212 10.5173 1.6989 7.52806 1.6989ZM0.5 7.11131C0.5 3.22982 3.64657 0.083252 7.52806 0.083252C11.4096 0.083252 14.5561 3.22982 14.5561 7.11131C14.5561 8.9875 13.8209 10.692 12.623 11.9524L15.2081 14.5375C15.5236 14.853 15.5236 15.3645 15.2081 15.68C14.8926 15.9955 14.3812 15.9955 14.0657 15.68L11.3999 13.0142C11.3925 13.0068 11.3853 12.9994 11.3783 12.9918C10.2724 13.7174 8.94954 14.1394 7.52806 14.1394C3.64657 14.1394 0.5 10.9928 0.5 7.11131Z" fill="#ABABAB"/>
</svg>
