<svg width="18" height="18" viewBox="0 0 18 18" fill="none" xmlns="http://www.w3.org/2000/svg">
<path fill-rule="evenodd" clip-rule="evenodd" d="M3.974 0.680994C2.27921 0.877248 0.93691 2.20435 0.721382 3.8968C0.285581 7.31895 0.285581 10.7826 0.721382 14.2047C0.93691 15.8972 2.2792 17.2243 3.97399 17.4205L4.10801 17.436C7.37111 17.8139 10.6669 17.8139 13.93 17.436L14.064 17.4205C15.7588 17.2243 17.1011 15.8972 17.3166 14.2047C17.7524 10.7826 17.7524 7.31895 17.3166 3.8968C17.1011 2.20435 15.7588 0.877248 14.064 0.680994L13.93 0.665476C10.6669 0.287615 7.37111 0.287615 4.10801 0.665475L3.974 0.680994ZM9.22935 4.00445C9.00886 3.69214 8.56997 3.69214 8.34948 4.00445L6.7674 6.24536C6.7333 6.29365 6.68612 6.32955 6.63225 6.34818L4.1202 7.21673C3.76244 7.34043 3.6231 7.80225 3.84586 8.12599L5.37997 10.3556C5.41441 10.4056 5.43316 10.466 5.43352 10.5282L5.4497 13.2865C5.45202 13.6818 5.81086 13.9624 6.16414 13.8453L8.70774 13.0016C8.76094 12.984 8.81789 12.984 8.87109 13.0016L11.4147 13.8453C11.768 13.9624 12.1268 13.6818 12.1291 13.2865L12.1453 10.5282C12.1457 10.466 12.1644 10.4056 12.1989 10.3556L13.733 8.12599C13.9557 7.80225 13.8164 7.34043 13.4586 7.21673L10.9466 6.34818C10.8927 6.32955 10.8455 6.29365 10.8114 6.24536L9.22935 4.00445Z" fill="#D8481A"/>
</svg>
